<svg width="7" height="7" viewBox="0 0 7 7" fill="none" xmlns="http://www.w3.org/2000/svg">
<path d="M0.446869 0.520996C0.446869 0.244854 0.670727 0.0209961 0.946869 0.0209961H6.21918C6.49532 0.0209961 6.71918 0.244854 6.71918 0.520996V2.47253C6.71918 2.74868 6.49532 2.97253 6.21918 2.97253H0.946869C0.670727 2.97253 0.446869 2.74868 0.446869 2.47253V0.520996Z" fill="black"/>
<path d="M0.446869 3.54683C0.446869 3.38114 0.581183 3.24683 0.746869 3.24683H3.14687C3.31255 3.24683 3.44687 3.38114 3.44687 3.54683V5.94683C3.44687 6.11251 3.31255 6.24683 3.14687 6.24683H0.746869C0.581183 6.24683 0.446869 6.11251 0.446869 5.94683V3.54683Z" fill="black"/>
<path d="M3.71918 3.54683C3.71918 3.38114 3.85349 3.24683 4.01918 3.24683H6.41918C6.58486 3.24683 6.71918 3.38114 6.71918 3.54683V5.94683C6.71918 6.11251 6.58486 6.24683 6.41918 6.24683H4.01918C3.85349 6.24683 3.71918 6.11251 3.71918 5.94683V3.54683Z" fill="black"/>
</svg>
