<svg width="45" height="13" viewBox="0 0 45 13" fill="none" xmlns="http://www.w3.org/2000/svg">
<path d="M2.50955 8.26857L3.10721 8.02638V4.26857L2.50955 4.02638V3.34669L4.42752 3.30763L6.58768 7.00294V4.26857L6.00564 4.02638V3.34669L8.28299 3.30763V4.02638L7.68533 4.26857V8.94826H6.34939L4.20486 5.32326V8.02638L4.82986 8.26857V8.94826H2.50955V8.26857ZM10.4525 7.05373C10.4734 7.37404 10.5697 7.62404 10.7416 7.80373C10.9161 7.98081 11.1426 8.06935 11.4213 8.06935C11.6192 8.06935 11.8171 8.04201 12.015 7.98732C12.2155 7.93003 12.3809 7.87274 12.5111 7.81544C12.6439 7.75555 12.7286 7.71388 12.765 7.69044L13.1088 8.35451C13.1088 8.36492 13.015 8.43133 12.8275 8.55373C12.6426 8.67352 12.4148 8.78289 12.1439 8.88185C11.8757 8.97821 11.5892 9.02638 11.2846 9.02638C10.6075 9.02638 10.0918 8.83888 9.73768 8.46388C9.38351 8.08888 9.20643 7.55763 9.20643 6.87013C9.20643 6.40659 9.29106 6.00034 9.46033 5.65138C9.63221 5.29982 9.8783 5.02899 10.1986 4.83888C10.5189 4.64617 10.8991 4.54982 11.3392 4.54982C11.9252 4.54982 12.3744 4.71779 12.6869 5.05373C12.9994 5.38966 13.1556 5.848 13.1556 6.42873C13.1556 6.55633 13.1491 6.68003 13.1361 6.79982C13.1231 6.91961 13.114 6.99513 13.1088 7.02638L10.4525 7.05373ZM11.2611 5.50685C11.0424 5.50685 10.864 5.58107 10.726 5.72951C10.5879 5.87534 10.502 6.06805 10.4681 6.30763H11.9174C11.9174 6.06805 11.864 5.87534 11.7572 5.72951C11.6504 5.58107 11.4851 5.50685 11.2611 5.50685ZM17.8799 5.4131L16.9619 6.7881L17.8642 8.14748L18.458 8.30763V8.94826H16.2822V8.30763L16.5283 8.22169L16.1064 7.51466L15.2392 8.94826H13.8799V8.30763L14.4814 8.14748L15.3603 6.82716L14.3916 5.4131L13.9619 5.30763V4.66701L16.0322 4.62794V5.30763L15.7939 5.35451L16.208 6.06154L17.04 4.66701L18.376 4.62794V5.30763L17.8799 5.4131ZM20.9439 9.02638C20.5116 9.02638 20.2056 8.89227 20.026 8.62404C19.8489 8.35581 19.7603 7.97039 19.7603 7.46779V5.62794H19.0181V4.8506L19.7603 4.74904V3.64357L20.9596 3.42873V4.74904H22.0806V5.62794H20.9596V7.38966C20.9596 7.65529 20.9882 7.84149 21.0455 7.94826C21.1054 8.05503 21.2187 8.10841 21.3853 8.10841C21.4817 8.10841 21.5937 8.08758 21.7213 8.04591C21.8489 8.00164 21.9478 7.96128 22.0181 7.92482L22.3033 8.53419C21.8554 8.86492 21.4023 9.02899 20.9439 9.02638ZM24.5588 4.26857H23.7971L23.5978 5.02638H22.8596V3.30763H27.5002V5.02638H26.758L26.5588 4.26857H25.7971V8.02638L26.5588 8.26857V8.94826H23.7971V8.26857L24.5588 8.02638V4.26857ZM30.8416 8.42873C30.8416 8.43914 30.7726 8.49774 30.6346 8.60451C30.4965 8.71128 30.3312 8.80893 30.1385 8.89748C29.9457 8.98341 29.7478 9.02638 29.5447 9.02638C29.1541 9.02638 28.8481 8.91831 28.6267 8.70216C28.408 8.48341 28.2986 8.17352 28.2986 7.77248C28.2986 7.31414 28.4627 6.97951 28.7908 6.76857C29.1189 6.55763 29.5968 6.45216 30.2244 6.45216H30.7869V6.01076C30.7869 5.62013 30.5812 5.42612 30.1697 5.42873C30.0473 5.42873 29.934 5.43784 29.8299 5.45607C29.7257 5.4743 29.6424 5.49383 29.5799 5.51466C29.52 5.53289 29.4822 5.54461 29.4666 5.54982L29.3455 6.05373H28.6267L28.5721 4.87013C28.6189 4.85451 28.7335 4.82065 28.9158 4.76857C29.1007 4.71649 29.3207 4.66701 29.576 4.62013C29.8338 4.57326 30.0773 4.54982 30.3064 4.54982C30.7179 4.54982 31.0447 4.6019 31.2869 4.70607C31.5291 4.80763 31.7062 4.9743 31.8181 5.20607C31.9301 5.43524 31.9861 5.74383 31.9861 6.13185V8.10841L32.5877 8.25294V8.89357L30.9861 8.94826L30.8416 8.42873ZM29.4588 7.65138C29.4588 7.80763 29.4991 7.92742 29.5799 8.01076C29.6632 8.09149 29.7804 8.13185 29.9314 8.13185C30.059 8.13185 30.1853 8.098 30.3103 8.03029C30.4353 7.95998 30.5408 7.88836 30.6267 7.81544C30.7127 7.73992 30.7661 7.69044 30.7869 7.66701V7.13185H30.3299C30.02 7.13185 29.7973 7.17352 29.6619 7.25685C29.5265 7.34018 29.4588 7.47169 29.4588 7.65138ZM35.9095 8.30763V8.94826H33.3431V8.30763L33.9838 8.10841V3.61232L33.3431 3.45216V2.81154L35.1908 2.74904V8.10841L35.9095 8.30763ZM39.0752 8.30763V8.94826H36.5088V8.30763L37.1494 8.10841V3.61232L36.5088 3.45216V2.81154L38.3564 2.74904V8.10841L39.0752 8.30763ZM39.5533 4.66701L41.69 4.62794V5.30763L41.2408 5.38966L41.9556 7.62794L42.6353 5.4131L42.1705 5.30763V4.66701L44.3228 4.62794V5.30763L43.8267 5.4131L42.651 8.69044C42.4973 9.12274 42.3332 9.49253 42.1588 9.79982C41.9843 10.1071 41.7577 10.3623 41.4791 10.5654C41.203 10.7686 40.8684 10.8701 40.4752 10.8701C40.3632 10.8701 40.2187 10.8597 40.0416 10.8389C39.8671 10.8207 39.7525 10.8089 39.6978 10.8037L39.8111 9.94826H40.3306C40.6067 9.94826 40.8241 9.8506 40.983 9.65529C41.1444 9.45998 41.2838 9.2269 41.401 8.95607L39.9791 5.43654L39.5533 5.30763V4.66701Z" fill="white"/>
<line x1="0.768083" y1="0.868283" x2="0.884975" y2="12.1197" stroke="white" stroke-width="0.5"/>
</svg>
