<svg width="67" height="15" viewBox="0 0 67 15" fill="none" xmlns="http://www.w3.org/2000/svg">
<path d="M25.0766 8.21034L25.6743 7.96815V4.21034L25.0766 3.96815V3.28847L26.9946 3.2494L29.1548 6.94472V4.21034L28.5727 3.96815V3.28847L30.8501 3.2494V3.96815L30.2524 4.21034V8.89003H28.9165L26.7719 5.26503V7.96815L27.3969 8.21034V8.89003H25.0766V8.21034ZM33.0196 6.9955C33.0404 7.31581 33.1368 7.56581 33.3087 7.7455C33.4831 7.92258 33.7097 8.01112 33.9883 8.01112C34.1863 8.01112 34.3842 7.98378 34.5821 7.92909C34.7826 7.8718 34.948 7.81451 35.0782 7.75722C35.211 7.69732 35.2956 7.65565 35.3321 7.63222L35.6758 8.29628C35.6758 8.3067 35.5821 8.3731 35.3946 8.4955C35.2097 8.61529 34.9818 8.72467 34.711 8.82362C34.4428 8.91998 34.1563 8.96815 33.8516 8.96815C33.1745 8.96815 32.6589 8.78065 32.3048 8.40565C31.9506 8.03065 31.7735 7.4994 31.7735 6.8119C31.7735 6.34836 31.8581 5.94211 32.0274 5.59315C32.1993 5.24159 32.4454 4.97076 32.7657 4.78065C33.086 4.58795 33.4662 4.49159 33.9063 4.49159C34.4923 4.49159 34.9415 4.65956 35.254 4.9955C35.5665 5.33144 35.7227 5.78977 35.7227 6.3705C35.7227 6.4981 35.7162 6.6218 35.7032 6.74159C35.6902 6.86138 35.6811 6.9369 35.6758 6.96815L33.0196 6.9955ZM33.8282 5.44862C33.6094 5.44862 33.4311 5.52284 33.293 5.67128C33.155 5.81711 33.0691 6.00982 33.0352 6.2494H34.4844C34.4844 6.00982 34.4311 5.81711 34.3243 5.67128C34.2175 5.52284 34.0521 5.44862 33.8282 5.44862ZM40.4469 5.35487L39.529 6.72987L40.4313 8.08925L41.0251 8.2494V8.89003H38.8493V8.2494L39.0954 8.16347L38.6735 7.45644L37.8063 8.89003H36.4469V8.2494L37.0485 8.08925L37.9274 6.76894L36.9587 5.35487L36.529 5.2494V4.60878L38.5993 4.56972V5.2494L38.361 5.29628L38.7751 6.00331L39.6071 4.60878L40.943 4.56972V5.2494L40.4469 5.35487ZM43.511 8.96815C43.0787 8.96815 42.7727 8.83404 42.593 8.56581C42.416 8.29758 42.3274 7.91217 42.3274 7.40956V5.56972H41.5852V4.79237L42.3274 4.69081V3.58534L43.5266 3.3705V4.69081H44.6477V5.56972H43.5266V7.33144C43.5266 7.59706 43.5553 7.78326 43.6126 7.89003C43.6725 7.9968 43.7857 8.05019 43.9524 8.05019C44.0488 8.05019 44.1607 8.02935 44.2883 7.98769C44.416 7.94342 44.5149 7.90305 44.5852 7.86659L44.8704 8.47597C44.4225 8.8067 43.9693 8.97076 43.511 8.96815ZM47.1258 4.21034H46.3641L46.1649 4.96815H45.4266V3.2494H50.0673V4.96815H49.3251L49.1258 4.21034H48.3641V7.96815L49.1258 8.21034V8.89003H46.3641V8.21034L47.1258 7.96815V4.21034ZM53.4087 8.3705C53.4087 8.38092 53.3396 8.43951 53.2016 8.54628C53.0636 8.65305 52.8982 8.75071 52.7055 8.83925C52.5128 8.92519 52.3149 8.96815 52.1118 8.96815C51.7212 8.96815 51.4152 8.86008 51.1938 8.64394C50.9751 8.42519 50.8657 8.11529 50.8657 7.71425C50.8657 7.25592 51.0298 6.92128 51.3579 6.71034C51.686 6.4994 52.1639 6.39394 52.7915 6.39394H53.354V5.95253C53.354 5.5619 53.1482 5.36789 52.7368 5.3705C52.6144 5.3705 52.5011 5.37961 52.3969 5.39784C52.2928 5.41607 52.2094 5.4356 52.1469 5.45644C52.087 5.47467 52.0493 5.48638 52.0337 5.49159L51.9126 5.9955H51.1938L51.1391 4.8119C51.186 4.79628 51.3006 4.76243 51.4829 4.71034C51.6678 4.65826 51.8878 4.60878 52.143 4.5619C52.4008 4.51503 52.6443 4.49159 52.8735 4.49159C53.285 4.49159 53.6118 4.54368 53.854 4.64784C54.0962 4.7494 54.2732 4.91607 54.3852 5.14784C54.4972 5.37701 54.5532 5.6856 54.5532 6.07362V8.05019L55.1548 8.19472V8.83534L53.5532 8.89003L53.4087 8.3705ZM52.0258 7.59315C52.0258 7.7494 52.0662 7.8692 52.1469 7.95253C52.2303 8.03326 52.3475 8.07362 52.4985 8.07362C52.6261 8.07362 52.7524 8.03977 52.8774 7.97206C53.0024 7.90175 53.1079 7.83013 53.1938 7.75722C53.2798 7.6817 53.3331 7.63222 53.354 7.60878V7.07362H52.8969C52.587 7.07362 52.3644 7.11529 52.229 7.19862C52.0936 7.28196 52.0258 7.41347 52.0258 7.59315ZM58.4766 8.2494V8.89003H55.9102V8.2494L56.5508 8.05019V3.55409L55.9102 3.39394V2.75331L57.7579 2.69081V8.05019L58.4766 8.2494ZM61.6423 8.2494V8.89003H59.0758V8.2494L59.7165 8.05019V3.55409L59.0758 3.39394V2.75331L60.9235 2.69081V8.05019L61.6423 8.2494ZM62.1204 4.60878L64.2571 4.56972V5.2494L63.8079 5.33144L64.5227 7.56972L65.2024 5.35487L64.7376 5.2494V4.60878L66.8899 4.56972V5.2494L66.3938 5.35487L65.218 8.63222C65.0644 9.06451 64.9003 9.4343 64.7258 9.74159C64.5514 10.0489 64.3248 10.3041 64.0462 10.5072C63.7701 10.7103 63.4355 10.8119 63.0423 10.8119C62.9303 10.8119 62.7857 10.8015 62.6087 10.7807C62.4342 10.7624 62.3196 10.7507 62.2649 10.7455L62.3782 9.89003H62.8977C63.1738 9.89003 63.3912 9.79237 63.5501 9.59706C63.7115 9.40175 63.8508 9.16868 63.968 8.89784L62.5462 5.37831L62.1204 5.2494V4.60878Z" fill="black"/>
<path d="M27.2757 10.2161L27.3697 10.1783V9.59111L27.2757 9.55327V9.44707L27.5632 9.44096H27.9135V9.67839H27.797L27.7658 9.59111H27.5632V9.80962H27.822V9.94756H27.5632V10.1783L27.6786 10.2161V10.3223H27.2757V10.2161ZM28.4261 9.63506C28.5266 9.63506 28.6042 9.66435 28.6587 9.72295C28.7136 9.78154 28.7411 9.86475 28.7411 9.97258C28.7411 10.0466 28.7272 10.1109 28.6996 10.1655C28.6723 10.22 28.6337 10.2619 28.5836 10.2912C28.5336 10.3201 28.4748 10.3345 28.4072 10.3345C28.1948 10.3345 28.0886 10.22 28.0886 9.99089C28.0886 9.91683 28.1025 9.85315 28.1301 9.79985C28.1582 9.74655 28.1977 9.70586 28.2485 9.67778C28.2994 9.6493 28.3586 9.63506 28.4261 9.63506ZM28.4194 9.78459C28.3722 9.78459 28.3374 9.79985 28.3151 9.83037C28.2931 9.86089 28.2821 9.91236 28.2821 9.98479C28.2821 10.054 28.2925 10.1046 28.3132 10.1368C28.3344 10.1689 28.3678 10.185 28.4133 10.185C28.4593 10.185 28.4931 10.1689 28.5146 10.1368C28.5362 10.1046 28.547 10.0519 28.547 9.97868C28.547 9.91358 28.5368 9.86495 28.5165 9.83281C28.4961 9.80066 28.4638 9.78459 28.4194 9.78459ZM29.2018 9.73332C29.2018 9.73169 29.2116 9.72213 29.2311 9.70464C29.2506 9.68714 29.2732 9.67127 29.2988 9.65703C29.3249 9.64238 29.3505 9.63506 29.3758 9.63506C29.3957 9.63506 29.4144 9.63668 29.4319 9.63994C29.4494 9.64319 29.463 9.64665 29.4728 9.65031C29.483 9.65398 29.4893 9.65621 29.4917 9.65703L29.482 9.89751H29.3696L29.3507 9.79131C29.3292 9.79131 29.3082 9.7966 29.2879 9.80717C29.2679 9.81735 29.2508 9.82874 29.2366 9.84135C29.2228 9.85356 29.2158 9.86007 29.2158 9.86089V10.1911L29.341 10.2222V10.3223H28.9284V10.2222L29.0285 10.1911V9.78459L28.9284 9.75346V9.65337L29.1908 9.64726L29.2018 9.73332ZM30.2703 9.59111H30.1513L30.1202 9.70952H30.0048V9.44096H30.7299V9.70952H30.614L30.5828 9.59111H30.4638V10.1783L30.5828 10.2161V10.3223H30.1513V10.2161L30.2703 10.1783V9.59111ZM31.2895 10.2411C31.2895 10.2428 31.2787 10.2519 31.2572 10.2686C31.2356 10.2853 31.2098 10.3005 31.1797 10.3144C31.1495 10.3278 31.1186 10.3345 31.0869 10.3345C31.0258 10.3345 30.978 10.3176 30.9435 10.2839C30.9093 10.2497 30.8922 10.2013 30.8922 10.1386C30.8922 10.067 30.9178 10.0147 30.9691 9.98174C31.0204 9.94878 31.095 9.9323 31.1931 9.9323H31.281V9.86333C31.281 9.80229 31.2488 9.77198 31.1845 9.77238C31.1654 9.77238 31.1477 9.77381 31.1314 9.77666C31.1152 9.77951 31.1021 9.78256 31.0924 9.78581C31.083 9.78866 31.0771 9.79049 31.0747 9.79131L31.0558 9.87004H30.9435L30.9349 9.6851C30.9422 9.68266 30.9601 9.67737 30.9886 9.66924C31.0175 9.6611 31.0519 9.65337 31.0918 9.64604C31.1321 9.63872 31.1701 9.63506 31.2059 9.63506C31.2702 9.63506 31.3213 9.64319 31.3591 9.65947C31.3969 9.67534 31.4246 9.70138 31.4421 9.73759C31.4596 9.7734 31.4684 9.82162 31.4684 9.88225V10.1911L31.5623 10.2137V10.3138L31.3121 10.3223L31.2895 10.2411ZM31.0735 10.1197C31.0735 10.1441 31.0798 10.1628 31.0924 10.1758C31.1054 10.1884 31.1237 10.1947 31.1473 10.1947C31.1672 10.1947 31.187 10.1895 31.2065 10.1789C31.226 10.1679 31.2425 10.1567 31.256 10.1453C31.2694 10.1335 31.2777 10.1258 31.281 10.1221V10.0385H31.2096C31.1611 10.0385 31.1264 10.045 31.1052 10.058C31.084 10.0711 31.0735 10.0916 31.0735 10.1197ZM32.324 9.76994L32.1805 9.98479L32.3215 10.1972L32.4143 10.2222V10.3223H32.0743V10.2222L32.1128 10.2088L32.0469 10.0983L31.9114 10.3223H31.699V10.2222L31.793 10.1972L31.9303 9.99089L31.7789 9.76994L31.7118 9.75346V9.65337L32.0353 9.64726V9.75346L31.998 9.76079L32.0627 9.87126L32.1927 9.65337L32.4015 9.64726V9.75346L32.324 9.76994ZM32.9585 10.2161L33.0519 10.1783V9.59111L32.9585 9.55327V9.44707L33.2808 9.44096L33.4682 9.85722L33.6647 9.44707L33.9644 9.44096V9.55327L33.8747 9.59111V10.1783L33.9681 10.2161V10.3223H33.5957V10.2161L33.6934 10.1783V9.7083L33.6598 9.79131L33.5182 10.0849L33.3833 10.091L33.2393 9.79497L33.2185 9.72966V10.1783L33.3144 10.2161V10.3223H32.9585V10.2161ZM34.5594 10.2411C34.5594 10.2428 34.5486 10.2519 34.527 10.2686C34.5055 10.2853 34.4796 10.3005 34.4495 10.3144C34.4194 10.3278 34.3885 10.3345 34.3568 10.3345C34.2957 10.3345 34.2479 10.3176 34.2133 10.2839C34.1791 10.2497 34.1621 10.2013 34.1621 10.1386C34.1621 10.067 34.1877 10.0147 34.239 9.98174C34.2902 9.94878 34.3649 9.9323 34.463 9.9323H34.5508V9.86333C34.5508 9.80229 34.5187 9.77198 34.4544 9.77238C34.4353 9.77238 34.4176 9.77381 34.4013 9.77666C34.385 9.77951 34.372 9.78256 34.3623 9.78581C34.3529 9.78866 34.347 9.79049 34.3446 9.79131L34.3256 9.87004H34.2133L34.2048 9.6851C34.2121 9.68266 34.23 9.67737 34.2585 9.66924C34.2874 9.6611 34.3218 9.65337 34.3616 9.64604C34.4019 9.63872 34.44 9.63506 34.4758 9.63506C34.5401 9.63506 34.5911 9.64319 34.629 9.65947C34.6668 9.67534 34.6945 9.70138 34.712 9.73759C34.7295 9.7734 34.7382 9.82162 34.7382 9.88225V10.1911L34.8322 10.2137V10.3138L34.582 10.3223L34.5594 10.2411ZM34.3433 10.1197C34.3433 10.1441 34.3496 10.1628 34.3623 10.1758C34.3753 10.1884 34.3936 10.1947 34.4172 10.1947C34.4371 10.1947 34.4569 10.1895 34.4764 10.1789C34.4959 10.1679 34.5124 10.1567 34.5258 10.1453C34.5393 10.1335 34.5476 10.1258 34.5508 10.1221V10.0385H34.4794C34.431 10.0385 34.3962 10.045 34.3751 10.058C34.3539 10.0711 34.3433 10.0916 34.3433 10.1197ZM35.2801 9.73332C35.2801 9.73169 35.2931 9.72234 35.3192 9.70525C35.3456 9.68816 35.3757 9.67269 35.4095 9.65886C35.4433 9.64462 35.4769 9.6375 35.5102 9.6375C35.57 9.6375 35.6166 9.65723 35.65 9.6967C35.6834 9.73617 35.7 9.79049 35.7 9.85966V10.1911L35.7879 10.2222V10.3223H35.4437V10.2222L35.5127 10.1911V9.89384C35.5127 9.86455 35.5049 9.84054 35.4895 9.82182C35.474 9.80311 35.4535 9.79375 35.4278 9.79375C35.4046 9.79375 35.3831 9.79904 35.3631 9.80962C35.3436 9.81979 35.3271 9.83118 35.3137 9.8438C35.3007 9.856 35.2942 9.86292 35.2942 9.86455V10.1911L35.3625 10.2222V10.3223H35.0067V10.2222L35.1068 10.1911V9.78459L35.0067 9.75346V9.65337L35.2716 9.64726L35.2801 9.73332ZM36.3658 10.2411C36.3658 10.2428 36.3551 10.2519 36.3335 10.2686C36.3119 10.2853 36.2861 10.3005 36.256 10.3144C36.2259 10.3278 36.1949 10.3345 36.1632 10.3345C36.1022 10.3345 36.0544 10.3176 36.0198 10.2839C35.9856 10.2497 35.9685 10.2013 35.9685 10.1386C35.9685 10.067 35.9941 10.0147 36.0454 9.98174C36.0967 9.94878 36.1713 9.9323 36.2694 9.9323H36.3573V9.86333C36.3573 9.80229 36.3251 9.77198 36.2609 9.77238C36.2417 9.77238 36.224 9.77381 36.2078 9.77666C36.1915 9.77951 36.1785 9.78256 36.1687 9.78581C36.1593 9.78866 36.1534 9.79049 36.151 9.79131L36.1321 9.87004H36.0198L36.0112 9.6851C36.0185 9.68266 36.0365 9.67737 36.0649 9.66924C36.0938 9.6611 36.1282 9.65337 36.1681 9.64604C36.2084 9.63872 36.2464 9.63506 36.2822 9.63506C36.3465 9.63506 36.3976 9.64319 36.4354 9.65947C36.4733 9.67534 36.5009 9.70138 36.5184 9.73759C36.5359 9.7734 36.5447 9.82162 36.5447 9.88225V10.1911L36.6387 10.2137V10.3138L36.3884 10.3223L36.3658 10.2411ZM36.1498 10.1197C36.1498 10.1441 36.1561 10.1628 36.1687 10.1758C36.1817 10.1884 36.2 10.1947 36.2236 10.1947C36.2436 10.1947 36.2633 10.1895 36.2828 10.1789C36.3024 10.1679 36.3188 10.1567 36.3323 10.1453C36.3457 10.1335 36.354 10.1258 36.3573 10.1221V10.0385H36.2859C36.2375 10.0385 36.2027 10.045 36.1815 10.058C36.1604 10.0711 36.1498 10.0916 36.1498 10.1197ZM36.8192 10.4596C36.8192 10.4279 36.829 10.4008 36.8485 10.3785C36.8681 10.3561 36.8898 10.3386 36.9138 10.326C36.9383 10.3134 36.9505 10.3081 36.9505 10.3101C36.9505 10.3117 36.9435 10.3099 36.9297 10.3046C36.9159 10.2989 36.9033 10.29 36.8919 10.2778C36.8809 10.2651 36.8754 10.2483 36.8754 10.2271C36.8754 10.2015 36.8972 10.1545 36.9407 10.0861C36.9167 10.0702 36.8945 10.0468 36.8742 10.0159C36.8542 9.98499 36.8443 9.94328 36.8443 9.89079C36.8443 9.80819 36.8719 9.74492 36.9273 9.70097C36.9826 9.65703 37.0548 9.63506 37.1439 9.63506C37.1997 9.63506 37.2489 9.64502 37.2916 9.66496L37.5065 9.66008V9.75957L37.4039 9.77727C37.4048 9.78052 37.4084 9.7909 37.4149 9.8084C37.4219 9.82589 37.4253 9.84848 37.4253 9.87614C37.4253 9.96281 37.3983 10.0273 37.3441 10.0696C37.29 10.1115 37.2172 10.1325 37.1256 10.1325C37.1098 10.1325 37.0957 10.1315 37.0835 10.1294C37.0713 10.127 37.064 10.1258 37.0615 10.1258L37.0567 10.21H37.2416C37.3218 10.21 37.3834 10.2267 37.4265 10.2601C37.4701 10.2934 37.4918 10.3412 37.4918 10.4035C37.4918 10.4751 37.4623 10.5325 37.4033 10.5756C37.3447 10.6191 37.2575 10.6409 37.1415 10.6409C37.0365 10.6409 36.9566 10.6271 36.9016 10.5994C36.8467 10.5721 36.8192 10.5256 36.8192 10.4596ZM37.1378 9.76384C37.1012 9.76384 37.0744 9.77361 37.0573 9.79314C37.0402 9.81267 37.0316 9.84237 37.0316 9.88225C37.0316 9.92131 37.0398 9.95203 37.056 9.97441C37.0723 9.99638 37.0976 10.0074 37.1317 10.0074C37.17 10.0074 37.1972 9.9974 37.2135 9.97746C37.2298 9.95752 37.2379 9.92579 37.2379 9.88225C37.2379 9.84237 37.2298 9.81267 37.2135 9.79314C37.1972 9.77361 37.172 9.76384 37.1378 9.76384ZM37.0603 10.3473C37.0571 10.349 37.0506 10.3528 37.0408 10.3589C37.0314 10.3654 37.0223 10.3746 37.0133 10.3864C37.0048 10.3986 37.0005 10.4126 37.0005 10.4285C37.0005 10.4586 37.0127 10.4786 37.0371 10.4883C37.0619 10.4985 37.1018 10.5036 37.1568 10.5036C37.2133 10.5036 37.254 10.4969 37.2788 10.4834C37.3041 10.47 37.3167 10.4485 37.3167 10.4187C37.3167 10.3919 37.3069 10.3732 37.2874 10.3626C37.2678 10.3524 37.2359 10.3473 37.1915 10.3473H37.0603ZM37.8708 10.0263C37.874 10.0763 37.8891 10.1154 37.9159 10.1435C37.9432 10.1711 37.9786 10.185 38.0221 10.185C38.0531 10.185 38.084 10.1807 38.1149 10.1722C38.1462 10.1632 38.1721 10.1543 38.1924 10.1453C38.2132 10.136 38.2264 10.1294 38.2321 10.1258L38.2858 10.2295C38.2858 10.2312 38.2712 10.2415 38.2419 10.2607C38.213 10.2794 38.1774 10.2965 38.1351 10.3119C38.0931 10.327 38.0484 10.3345 38.0008 10.3345C37.895 10.3345 37.8144 10.3052 37.7591 10.2466C37.7037 10.188 37.6761 10.105 37.6761 9.9976C37.6761 9.92518 37.6893 9.8617 37.7157 9.80717C37.7426 9.75224 37.781 9.70993 37.8311 9.68022C37.8811 9.65011 37.9406 9.63506 38.0093 9.63506C38.1009 9.63506 38.1711 9.6613 38.2199 9.71379C38.2687 9.76628 38.2931 9.8379 38.2931 9.92863C38.2931 9.94857 38.2921 9.9679 38.2901 9.98662C38.288 10.0053 38.2866 10.0171 38.2858 10.022L37.8708 10.0263ZM37.9971 9.78459C37.9629 9.78459 37.9351 9.79619 37.9135 9.81938C37.8919 9.84217 37.8785 9.87228 37.8732 9.90971H38.0997C38.0997 9.87228 38.0913 9.84217 38.0746 9.81938C38.0579 9.79619 38.0321 9.78459 37.9971 9.78459ZM39.6474 10.3223H39.3087V10.2222L39.3752 10.1911V9.89384C39.3752 9.85885 39.3695 9.83301 39.3581 9.81633C39.3471 9.79965 39.3286 9.79131 39.3026 9.79131C39.2785 9.79131 39.2562 9.79619 39.2354 9.80595C39.2151 9.81531 39.198 9.82569 39.1841 9.83708C39.1707 9.84807 39.164 9.85438 39.164 9.856V10.1911L39.2287 10.2222V10.3223H38.9113V10.2222L38.9766 10.1911V9.89384C38.9766 9.85804 38.9711 9.832 38.9601 9.81572C38.9492 9.79944 38.9309 9.79131 38.9052 9.79131C38.8812 9.79131 38.8586 9.79619 38.8375 9.80595C38.8167 9.81531 38.7994 9.82589 38.7856 9.83769C38.7722 9.84909 38.7654 9.85519 38.7654 9.856V10.1911L38.8314 10.2222V10.3223H38.4816V10.2222L38.5775 10.1911V9.78459L38.4829 9.75346V9.65337L38.7441 9.64726L38.7526 9.73576C38.7526 9.73414 38.7646 9.72437 38.7886 9.70647C38.8131 9.68856 38.8415 9.67229 38.8741 9.65764C38.9066 9.64258 38.939 9.63506 38.9711 9.63506C39.0554 9.63506 39.1129 9.67086 39.1439 9.74248C39.1671 9.71928 39.1986 9.69568 39.2385 9.67168C39.2788 9.64726 39.3227 9.63506 39.3703 9.63506C39.4346 9.63506 39.4826 9.65459 39.5143 9.69365C39.5465 9.73271 39.5626 9.78805 39.5626 9.85966V10.1911L39.6474 10.2222V10.3223ZM40.0178 10.0263C40.021 10.0763 40.0361 10.1154 40.063 10.1435C40.0902 10.1711 40.1256 10.185 40.1692 10.185C40.2001 10.185 40.231 10.1807 40.2619 10.1722C40.2933 10.1632 40.3191 10.1543 40.3394 10.1453C40.3602 10.136 40.3734 10.1294 40.3791 10.1258L40.4328 10.2295C40.4328 10.2312 40.4182 10.2415 40.3889 10.2607C40.36 10.2794 40.3244 10.2965 40.2821 10.3119C40.2402 10.327 40.1954 10.3345 40.1478 10.3345C40.042 10.3345 39.9614 10.3052 39.9061 10.2466C39.8508 10.188 39.8231 10.105 39.8231 9.9976C39.8231 9.92518 39.8363 9.8617 39.8628 9.80717C39.8896 9.75224 39.9281 9.70993 39.9781 9.68022C40.0282 9.65011 40.0876 9.63506 40.1563 9.63506C40.2479 9.63506 40.3181 9.6613 40.3669 9.71379C40.4157 9.76628 40.4402 9.8379 40.4402 9.92863C40.4402 9.94857 40.4391 9.9679 40.4371 9.98662C40.4351 10.0053 40.4336 10.0171 40.4328 10.022L40.0178 10.0263ZM40.1441 9.78459C40.11 9.78459 40.0821 9.79619 40.0605 9.81938C40.039 9.84217 40.0255 9.87228 40.0202 9.90971H40.2467C40.2467 9.87228 40.2383 9.84217 40.2216 9.81938C40.205 9.79619 40.1791 9.78459 40.1441 9.78459ZM40.9021 9.73332C40.9021 9.73169 40.9151 9.72234 40.9412 9.70525C40.9676 9.68816 40.9977 9.67269 41.0315 9.65886C41.0653 9.64462 41.0988 9.6375 41.1322 9.6375C41.192 9.6375 41.2386 9.65723 41.272 9.6967C41.3053 9.73617 41.322 9.79049 41.322 9.85966V10.1911L41.4099 10.2222V10.3223H41.0657V10.2222L41.1346 10.1911V9.89384C41.1346 9.86455 41.1269 9.84054 41.1114 9.82182C41.096 9.80311 41.0754 9.79375 41.0498 9.79375C41.0266 9.79375 41.005 9.79904 40.9851 9.80962C40.9656 9.81979 40.9491 9.83118 40.9357 9.8438C40.9226 9.856 40.9161 9.86292 40.9161 9.86455V10.1911L40.9845 10.2222V10.3223H40.6287V10.2222L40.7288 10.1911V9.78459L40.6287 9.75346V9.65337L40.8935 9.64726L40.9021 9.73332ZM41.8602 10.3345C41.7927 10.3345 41.7449 10.3136 41.7168 10.2717C41.6891 10.2297 41.6753 10.1695 41.6753 10.091V9.80351H41.5593V9.68205L41.6753 9.66618V9.49345L41.8627 9.45988V9.66618H42.0379V9.80351H41.8627V10.0788C41.8627 10.1203 41.8672 10.1494 41.8761 10.1661C41.8855 10.1827 41.9032 10.1911 41.9292 10.1911C41.9443 10.1911 41.9618 10.1878 41.9817 10.1813C42.0016 10.1744 42.0171 10.1681 42.0281 10.1624L42.0727 10.2576C42.0027 10.3093 41.9319 10.3349 41.8602 10.3345Z" fill="black"/>
<path d="M47.4311 10.2161L47.5251 10.1783V9.59111L47.4311 9.55327V9.44707L47.7186 9.44096H48.0689V9.67839H47.9523L47.9212 9.59111H47.7186V9.80962H47.9774V9.94756H47.7186V10.1783L47.8339 10.2161V10.3223H47.4311V10.2161ZM48.3215 9.44096C48.3215 9.40678 48.3321 9.37952 48.3532 9.35918C48.3744 9.33883 48.3996 9.32866 48.4289 9.32866C48.4989 9.32866 48.5339 9.36609 48.5339 9.44096C48.5339 9.47596 48.5231 9.50383 48.5016 9.52458C48.4804 9.54493 48.4562 9.5551 48.4289 9.5551C48.3947 9.5551 48.3683 9.54533 48.3496 9.5258C48.3309 9.50586 48.3215 9.47758 48.3215 9.44096ZM48.6187 10.2222V10.3223H48.244V10.2222L48.3441 10.1911V9.78459L48.244 9.75346V9.65337L48.5315 9.64726V10.1911L48.6187 10.2222ZM49.074 9.73332C49.074 9.73169 49.087 9.72234 49.113 9.70525C49.1395 9.68816 49.1696 9.67269 49.2034 9.65886C49.2371 9.64462 49.2707 9.6375 49.3041 9.6375C49.3639 9.6375 49.4105 9.65723 49.4438 9.6967C49.4772 9.73617 49.4939 9.79049 49.4939 9.85966V10.1911L49.5818 10.2222V10.3223H49.2375V10.2222L49.3065 10.1911V9.89384C49.3065 9.86455 49.2988 9.84054 49.2833 9.82182C49.2679 9.80311 49.2473 9.79375 49.2217 9.79375C49.1985 9.79375 49.1769 9.79904 49.157 9.80962C49.1374 9.81979 49.121 9.83118 49.1075 9.8438C49.0945 9.856 49.088 9.86292 49.088 9.86455V10.1911L49.1564 10.2222V10.3223H48.8005V10.2222L48.9006 10.1911V9.78459L48.8005 9.75346V9.65337L49.0654 9.64726L49.074 9.73332ZM50.1597 10.2411C50.1597 10.2428 50.1489 10.2519 50.1273 10.2686C50.1058 10.2853 50.0799 10.3005 50.0498 10.3144C50.0197 10.3278 49.9888 10.3345 49.957 10.3345C49.896 10.3345 49.8482 10.3176 49.8136 10.2839C49.7794 10.2497 49.7623 10.2013 49.7623 10.1386C49.7623 10.067 49.788 10.0147 49.8392 9.98174C49.8905 9.94878 49.9652 9.9323 50.0632 9.9323H50.1511V9.86333C50.1511 9.80229 50.119 9.77198 50.0547 9.77238C50.0356 9.77238 50.0179 9.77381 50.0016 9.77666C49.9853 9.77951 49.9723 9.78256 49.9625 9.78581C49.9532 9.78866 49.9473 9.79049 49.9448 9.79131L49.9259 9.87004H49.8136L49.8051 9.6851C49.8124 9.68266 49.8303 9.67737 49.8588 9.66924C49.8877 9.6611 49.9221 9.65337 49.9619 9.64604C50.0022 9.63872 50.0403 9.63506 50.0761 9.63506C50.1404 9.63506 50.1914 9.64319 50.2293 9.65947C50.2671 9.67534 50.2948 9.70138 50.3123 9.73759C50.3298 9.7734 50.3385 9.82162 50.3385 9.88225V10.1911L50.4325 10.2137V10.3138L50.1823 10.3223L50.1597 10.2411ZM49.9436 10.1197C49.9436 10.1441 49.9499 10.1628 49.9625 10.1758C49.9756 10.1884 49.9939 10.1947 50.0175 10.1947C50.0374 10.1947 50.0571 10.1895 50.0767 10.1789C50.0962 10.1679 50.1127 10.1567 50.1261 10.1453C50.1395 10.1335 50.1479 10.1258 50.1511 10.1221V10.0385H50.0797C50.0313 10.0385 49.9965 10.045 49.9754 10.058C49.9542 10.0711 49.9436 10.0916 49.9436 10.1197ZM50.8804 9.73332C50.8804 9.73169 50.8934 9.72234 50.9195 9.70525C50.9459 9.68816 50.976 9.67269 51.0098 9.65886C51.0436 9.64462 51.0771 9.6375 51.1105 9.6375C51.1703 9.6375 51.2169 9.65723 51.2503 9.6967C51.2837 9.73617 51.3003 9.79049 51.3003 9.85966V10.1911L51.3882 10.2222V10.3223H51.044V10.2222L51.113 10.1911V9.89384C51.113 9.86455 51.1052 9.84054 51.0898 9.82182C51.0743 9.80311 51.0538 9.79375 51.0281 9.79375C51.0049 9.79375 50.9834 9.79904 50.9634 9.80962C50.9439 9.81979 50.9274 9.83118 50.914 9.8438C50.901 9.856 50.8945 9.86292 50.8945 9.86455V10.1911L50.9628 10.2222V10.3223H50.607V10.2222L50.7071 10.1911V9.78459L50.607 9.75346V9.65337L50.8719 9.64726L50.8804 9.73332ZM52.1559 10.2283C52.1279 10.2535 52.091 10.2776 52.0455 10.3003C52.0003 10.3231 51.9476 10.3345 51.8874 10.3345C51.7849 10.3345 51.7051 10.3046 51.6481 10.2448C51.5912 10.185 51.5627 10.1016 51.5627 9.99455C51.5627 9.88306 51.5928 9.79537 51.653 9.73149C51.7136 9.6672 51.7981 9.63506 51.9063 9.63506C51.9381 9.63506 51.97 9.63831 52.0021 9.64482C52.0347 9.65133 52.0618 9.65805 52.0833 9.66496C52.1053 9.67147 52.1191 9.67595 52.1248 9.67839L52.1187 9.88347H52.0064L51.9887 9.79497C51.9846 9.79415 51.9745 9.79232 51.9582 9.78947C51.9419 9.78622 51.9234 9.78459 51.9027 9.78459C51.8567 9.78459 51.8207 9.80026 51.7946 9.83159C51.769 9.86292 51.7562 9.9089 51.7562 9.96953C51.7562 10.0387 51.7692 10.092 51.7952 10.1294C51.8217 10.1665 51.8607 10.185 51.9124 10.185C51.945 10.185 51.9735 10.1801 51.9979 10.1703C52.0227 10.1602 52.0434 10.1498 52.0601 10.1392C52.0768 10.1286 52.088 10.1217 52.0937 10.1185L52.1559 10.2283ZM52.3969 9.44096C52.3969 9.40678 52.4075 9.37952 52.4287 9.35918C52.4498 9.33883 52.4751 9.32866 52.5044 9.32866C52.5743 9.32866 52.6093 9.36609 52.6093 9.44096C52.6093 9.47596 52.5986 9.50383 52.577 9.52458C52.5558 9.54493 52.5316 9.5551 52.5044 9.5551C52.4702 9.5551 52.4437 9.54533 52.425 9.5258C52.4063 9.50586 52.3969 9.47758 52.3969 9.44096ZM52.6942 10.2222V10.3223H52.3194V10.2222L52.4195 10.1911V9.78459L52.3194 9.75346V9.65337L52.6069 9.64726V10.1911L52.6942 10.2222ZM53.2794 10.2411C53.2794 10.2428 53.2686 10.2519 53.2471 10.2686C53.2255 10.2853 53.1997 10.3005 53.1695 10.3144C53.1394 10.3278 53.1085 10.3345 53.0768 10.3345C53.0157 10.3345 52.9679 10.3176 52.9333 10.2839C52.8992 10.2497 52.8821 10.2013 52.8821 10.1386C52.8821 10.067 52.9077 10.0147 52.959 9.98174C53.0102 9.94878 53.0849 9.9323 53.183 9.9323H53.2709V9.86333C53.2709 9.80229 53.2387 9.77198 53.1744 9.77238C53.1553 9.77238 53.1376 9.77381 53.1213 9.77666C53.1051 9.77951 53.092 9.78256 53.0823 9.78581C53.0729 9.78866 53.067 9.79049 53.0646 9.79131L53.0456 9.87004H52.9333L52.9248 9.6851C52.9321 9.68266 52.95 9.67737 52.9785 9.66924C53.0074 9.6611 53.0418 9.65337 53.0817 9.64604C53.1219 9.63872 53.16 9.63506 53.1958 9.63506C53.2601 9.63506 53.3111 9.64319 53.349 9.65947C53.3868 9.67534 53.4145 9.70138 53.432 9.73759C53.4495 9.7734 53.4582 9.82162 53.4582 9.88225V10.1911L53.5522 10.2137V10.3138L53.302 10.3223L53.2794 10.2411ZM53.0633 10.1197C53.0633 10.1441 53.0697 10.1628 53.0823 10.1758C53.0953 10.1884 53.1136 10.1947 53.1372 10.1947C53.1571 10.1947 53.1769 10.1895 53.1964 10.1789C53.2159 10.1679 53.2324 10.1567 53.2458 10.1453C53.2593 10.1335 53.2676 10.1258 53.2709 10.1221V10.0385H53.1995C53.151 10.0385 53.1162 10.045 53.0951 10.058C53.0739 10.0711 53.0633 10.0916 53.0633 10.1197ZM54.1088 10.2222V10.3223H53.7078V10.2222L53.8079 10.1911V9.48857L53.7078 9.46355V9.36345L53.9965 9.35368V10.1911L54.1088 10.2222ZM54.8868 9.59111H54.7678L54.7366 9.70952H54.6213V9.44096H55.3464V9.70952H55.2304L55.1993 9.59111H55.0803V10.1783L55.1993 10.2161V10.3223H54.7678V10.2161L54.8868 10.1783V9.59111ZM55.776 9.73332C55.776 9.73169 55.7857 9.72213 55.8053 9.70464C55.8248 9.68714 55.8474 9.67127 55.873 9.65703C55.8991 9.64238 55.9247 9.63506 55.9499 9.63506C55.9699 9.63506 55.9886 9.63668 56.0061 9.63994C56.0236 9.64319 56.0372 9.64665 56.047 9.65031C56.0571 9.65398 56.0634 9.65621 56.0659 9.65703L56.0561 9.89751H55.9438L55.9249 9.79131C55.9033 9.79131 55.8824 9.7966 55.862 9.80717C55.8421 9.81735 55.825 9.82874 55.8108 9.84135C55.7969 9.85356 55.79 9.86007 55.79 9.86089V10.1911L55.9151 10.2222V10.3223H55.5025V10.2222L55.6026 10.1911V9.78459L55.5025 9.75346V9.65337L55.765 9.64726L55.776 9.73332ZM56.62 10.2411C56.62 10.2428 56.6092 10.2519 56.5876 10.2686C56.5661 10.2853 56.5402 10.3005 56.5101 10.3144C56.48 10.3278 56.4491 10.3345 56.4174 10.3345C56.3563 10.3345 56.3085 10.3176 56.2739 10.2839C56.2397 10.2497 56.2226 10.2013 56.2226 10.1386C56.2226 10.067 56.2483 10.0147 56.2996 9.98174C56.3508 9.94878 56.4255 9.9323 56.5236 9.9323H56.6114V9.86333C56.6114 9.80229 56.5793 9.77198 56.515 9.77238C56.4959 9.77238 56.4782 9.77381 56.4619 9.77666C56.4456 9.77951 56.4326 9.78256 56.4228 9.78581C56.4135 9.78866 56.4076 9.79049 56.4051 9.79131L56.3862 9.87004H56.2739L56.2654 9.6851C56.2727 9.68266 56.2906 9.67737 56.3191 9.66924C56.348 9.6611 56.3824 9.65337 56.4222 9.64604C56.4625 9.63872 56.5006 9.63506 56.5364 9.63506C56.6007 9.63506 56.6517 9.64319 56.6896 9.65947C56.7274 9.67534 56.7551 9.70138 56.7726 9.73759C56.7901 9.7734 56.7988 9.82162 56.7988 9.88225V10.1911L56.8928 10.2137V10.3138L56.6426 10.3223L56.62 10.2411ZM56.4039 10.1197C56.4039 10.1441 56.4102 10.1628 56.4228 10.1758C56.4359 10.1884 56.4542 10.1947 56.4778 10.1947C56.4977 10.1947 56.5174 10.1895 56.537 10.1789C56.5565 10.1679 56.573 10.1567 56.5864 10.1453C56.5998 10.1335 56.6082 10.1258 56.6114 10.1221V10.0385H56.54C56.4916 10.0385 56.4568 10.045 56.4357 10.058C56.4145 10.0711 56.4039 10.0916 56.4039 10.1197ZM57.6605 10.2283C57.6325 10.2535 57.5956 10.2776 57.5501 10.3003C57.5049 10.3231 57.4522 10.3345 57.392 10.3345C57.2894 10.3345 57.2097 10.3046 57.1527 10.2448C57.0958 10.185 57.0673 10.1016 57.0673 9.99455C57.0673 9.88306 57.0974 9.79537 57.1576 9.73149C57.2182 9.6672 57.3027 9.63506 57.4109 9.63506C57.4426 9.63506 57.4746 9.63831 57.5067 9.64482C57.5393 9.65133 57.5663 9.65805 57.5879 9.66496C57.6099 9.67147 57.6237 9.67595 57.6294 9.67839L57.6233 9.88347H57.511L57.4933 9.79497C57.4892 9.79415 57.4791 9.79232 57.4628 9.78947C57.4465 9.78622 57.428 9.78459 57.4072 9.78459C57.3613 9.78459 57.3253 9.80026 57.2992 9.83159C57.2736 9.86292 57.2608 9.9089 57.2608 9.96953C57.2608 10.0387 57.2738 10.092 57.2998 10.1294C57.3263 10.1665 57.3653 10.185 57.417 10.185C57.4496 10.185 57.478 10.1801 57.5025 10.1703C57.5273 10.1602 57.548 10.1498 57.5647 10.1392C57.5814 10.1286 57.5926 10.1217 57.5983 10.1185L57.6605 10.2283ZM58.175 9.89873L58.2598 9.77116L58.2049 9.75346V9.65337L58.5278 9.64726V9.75346L58.4399 9.76994L58.3239 9.93352L58.4637 10.1923L58.5589 10.2222V10.3223H58.3276L58.1725 10.0171H58.0926V10.1911L58.1615 10.2222V10.3223H57.8051V10.2222L57.9052 10.1911V9.48857L57.8051 9.46355V9.36345L58.0926 9.35368V9.89873H58.175ZM58.7925 9.44096C58.7925 9.40678 58.8031 9.37952 58.8243 9.35918C58.8454 9.33883 58.8707 9.32866 58.9 9.32866C58.97 9.32866 59.0049 9.36609 59.0049 9.44096C59.0049 9.47596 58.9942 9.50383 58.9726 9.52458C58.9514 9.54493 58.9272 9.5551 58.9 9.5551C58.8658 9.5551 58.8393 9.54533 58.8206 9.5258C58.8019 9.50586 58.7925 9.47758 58.7925 9.44096ZM59.0898 10.2222V10.3223H58.715V10.2222L58.8151 10.1911V9.78459L58.715 9.75346V9.65337L59.0025 9.64726V10.1911L59.0898 10.2222ZM59.545 9.73332C59.545 9.73169 59.558 9.72234 59.5841 9.70525C59.6105 9.68816 59.6406 9.67269 59.6744 9.65886C59.7082 9.64462 59.7417 9.6375 59.7751 9.6375C59.8349 9.6375 59.8815 9.65723 59.9149 9.6967C59.9483 9.73617 59.9649 9.79049 59.9649 9.85966V10.1911L60.0528 10.2222V10.3223H59.7086V10.2222L59.7776 10.1911V9.89384C59.7776 9.86455 59.7698 9.84054 59.7544 9.82182C59.7389 9.80311 59.7184 9.79375 59.6927 9.79375C59.6695 9.79375 59.648 9.79904 59.628 9.80962C59.6085 9.81979 59.592 9.83118 59.5786 9.8438C59.5656 9.856 59.559 9.86292 59.559 9.86455V10.1911L59.6274 10.2222V10.3223H59.2716V10.2222L59.3717 10.1911V9.78459L59.2716 9.75346V9.65337L59.5365 9.64726L59.545 9.73332ZM60.2334 10.4596C60.2334 10.4279 60.2432 10.4008 60.2627 10.3785C60.2822 10.3561 60.304 10.3386 60.328 10.326C60.3524 10.3134 60.3646 10.3081 60.3646 10.3101C60.3646 10.3117 60.3577 10.3099 60.3439 10.3046C60.33 10.2989 60.3174 10.29 60.306 10.2778C60.295 10.2651 60.2895 10.2483 60.2895 10.2271C60.2895 10.2015 60.3113 10.1545 60.3549 10.0861C60.3308 10.0702 60.3087 10.0468 60.2883 10.0159C60.2684 9.98499 60.2584 9.94328 60.2584 9.89079C60.2584 9.80819 60.2861 9.74492 60.3414 9.70097C60.3968 9.65703 60.469 9.63506 60.5581 9.63506C60.6138 9.63506 60.6631 9.64502 60.7058 9.66496L60.9206 9.66008V9.75957L60.8181 9.77727C60.8189 9.78052 60.8226 9.7909 60.8291 9.8084C60.836 9.82589 60.8395 9.84848 60.8395 9.87614C60.8395 9.96281 60.8124 10.0273 60.7583 10.0696C60.7042 10.1115 60.6313 10.1325 60.5398 10.1325C60.5239 10.1325 60.5099 10.1315 60.4977 10.1294C60.4855 10.127 60.4781 10.1258 60.4757 10.1258L60.4708 10.21H60.6558C60.7359 10.21 60.7976 10.2267 60.8407 10.2601C60.8842 10.2934 60.906 10.3412 60.906 10.4035C60.906 10.4751 60.8765 10.5325 60.8175 10.5756C60.7589 10.6191 60.6716 10.6409 60.5557 10.6409C60.4507 10.6409 60.3707 10.6271 60.3158 10.5994C60.2609 10.5721 60.2334 10.5256 60.2334 10.4596ZM60.552 9.76384C60.5154 9.76384 60.4885 9.77361 60.4714 9.79314C60.4543 9.81267 60.4458 9.84237 60.4458 9.88225C60.4458 9.92131 60.4539 9.95203 60.4702 9.97441C60.4865 9.99638 60.5117 10.0074 60.5459 10.0074C60.5841 10.0074 60.6114 9.9974 60.6277 9.97746C60.644 9.95752 60.6521 9.92579 60.6521 9.88225C60.6521 9.84237 60.644 9.81267 60.6277 9.79314C60.6114 9.77361 60.5862 9.76384 60.552 9.76384ZM60.4745 10.3473C60.4712 10.349 60.4647 10.3528 60.4549 10.3589C60.4456 10.3654 60.4364 10.3746 60.4275 10.3864C60.4189 10.3986 60.4147 10.4126 60.4147 10.4285C60.4147 10.4586 60.4269 10.4786 60.4513 10.4883C60.4761 10.4985 60.516 10.5036 60.5709 10.5036C60.6275 10.5036 60.6682 10.4969 60.693 10.4834C60.7182 10.47 60.7308 10.4485 60.7308 10.4187C60.7308 10.3919 60.7211 10.3732 60.7015 10.3626C60.682 10.3524 60.6501 10.3473 60.6057 10.3473H60.4745Z" fill="black"/>
<path d="M5.47336 2.84376L10.6564 1.27009V6.85659L5.47336 9.41745V2.84376Z" fill="#444141"/>
<path d="M10.6545 1.27293L20.4862 2.99907V8.88597L10.6203 6.55798L10.6545 1.27293Z" fill="#3C3737"/>
<path d="M5.47336 2.84927L15.3245 4.67516V11.6091L5.47336 9.48887V2.84927Z" fill="black"/>
<path d="M15.3027 4.67516L20.4858 3.01524V9.40208L15.3027 11.6091V4.67516Z" fill="black"/>
<g filter="url(#filter0_d_6_6)">
<path d="M4.43647 5.34572L5.46372 2.85041L15.3078 4.66854L13.4576 6.9414L4.43647 5.34572Z" fill="#3C3737"/>
</g>
<path d="M21.5191 5.27299L20.4823 3.00269L15.3042 4.67185L16.2974 6.95014L21.5191 5.27299Z" fill="#3C3737"/>
<line x1="23.3352" y1="0.810055" x2="23.4521" y2="12.0614" stroke="black" stroke-width="0.5"/>
<defs>
<filter id="filter0_d_6_6" x="0.436478" y="2.85042" width="18.8713" height="12.091" filterUnits="userSpaceOnUse" color-interpolation-filters="sRGB">
<feFlood flood-opacity="0" result="BackgroundImageFix"/>
<feColorMatrix in="SourceAlpha" type="matrix" values="0 0 0 0 0 0 0 0 0 0 0 0 0 0 0 0 0 0 127 0" result="hardAlpha"/>
<feOffset dy="4"/>
<feGaussianBlur stdDeviation="2"/>
<feComposite in2="hardAlpha" operator="out"/>
<feColorMatrix type="matrix" values="0 0 0 0 0 0 0 0 0 0 0 0 0 0 0 0 0 0 0.25 0"/>
<feBlend mode="normal" in2="BackgroundImageFix" result="effect1_dropShadow_6_6"/>
<feBlend mode="normal" in="SourceGraphic" in2="effect1_dropShadow_6_6" result="shape"/>
</filter>
</defs>
</svg>
