<svg width="45" height="12" viewBox="0 0 45 12" fill="none" xmlns="http://www.w3.org/2000/svg">
<path d="M2.36982 7.45496L2.96747 7.21277V3.45496L2.36982 3.21277V2.53308L4.28779 2.49402L6.44794 6.18933V3.45496L5.86591 3.21277V2.53308L8.14326 2.49402V3.21277L7.5456 3.45496V8.13464H6.20966L4.06513 4.50964V7.21277L4.69013 7.45496V8.13464H2.36982V7.45496ZM10.3128 6.24011C10.3336 6.56042 10.43 6.81042 10.6018 6.99011C10.7763 7.1672 11.0029 7.25574 11.2815 7.25574C11.4795 7.25574 11.6774 7.22839 11.8753 7.17371C12.0758 7.11641 12.2412 7.05912 12.3714 7.00183C12.5042 6.94194 12.5888 6.90027 12.6253 6.87683L12.969 7.54089C12.969 7.55131 12.8753 7.61772 12.6878 7.74011C12.5029 7.8599 12.275 7.96928 12.0042 8.06824C11.736 8.16459 11.4495 8.21277 11.1448 8.21277C10.4677 8.21277 9.95211 8.02527 9.59794 7.65027C9.24378 7.27527 9.06669 6.74402 9.06669 6.05652C9.06669 5.59298 9.15133 5.18673 9.3206 4.83777C9.49247 4.48621 9.73857 4.21537 10.0589 4.02527C10.3792 3.83256 10.7594 3.73621 11.1995 3.73621C11.7854 3.73621 12.2347 3.90417 12.5472 4.24011C12.8597 4.57605 13.0159 5.03438 13.0159 5.61511C13.0159 5.74272 13.0094 5.86641 12.9964 5.98621C12.9834 6.106 12.9742 6.18152 12.969 6.21277L10.3128 6.24011ZM11.1214 4.69324C10.9026 4.69324 10.7242 4.76746 10.5862 4.91589C10.4482 5.06173 10.3623 5.25444 10.3284 5.49402H11.7776C11.7776 5.25444 11.7242 5.06173 11.6175 4.91589C11.5107 4.76746 11.3453 4.69324 11.1214 4.69324ZM17.7401 4.59949L16.8222 5.97449L17.7245 7.33386L18.3183 7.49402V8.13464H16.1425V7.49402L16.3886 7.40808L15.9667 6.70105L15.0995 8.13464H13.7401V7.49402L14.3417 7.33386L15.2206 6.01355L14.2518 4.59949L13.8222 4.49402V3.85339L15.8925 3.81433V4.49402L15.6542 4.54089L16.0683 5.24792L16.9003 3.85339L18.2362 3.81433V4.49402L17.7401 4.59949ZM20.8042 8.21277C20.3719 8.21277 20.0659 8.07865 19.8862 7.81042C19.7091 7.5422 19.6206 7.15678 19.6206 6.65417V4.81433H18.8784V4.03699L19.6206 3.93542V2.82996L20.8198 2.61511V3.93542H21.9409V4.81433H20.8198V6.57605C20.8198 6.84167 20.8485 7.02787 20.9058 7.13464C20.9657 7.24141 21.0789 7.2948 21.2456 7.2948C21.342 7.2948 21.4539 7.27397 21.5815 7.2323C21.7091 7.18803 21.8081 7.14766 21.8784 7.11121L22.1636 7.72058C21.7157 8.05131 21.2625 8.21537 20.8042 8.21277ZM24.419 3.45496H23.6573L23.4581 4.21277H22.7198V2.49402H27.3604V4.21277H26.6183L26.419 3.45496H25.6573V7.21277L26.419 7.45496V8.13464H23.6573V7.45496L24.419 7.21277V3.45496ZM30.7018 7.61511C30.7018 7.62553 30.6328 7.68412 30.4948 7.79089C30.3568 7.89766 30.1914 7.99532 29.9987 8.08386C29.806 8.1698 29.6081 8.21277 29.405 8.21277C29.0143 8.21277 28.7084 8.1047 28.487 7.88855C28.2683 7.6698 28.1589 7.3599 28.1589 6.95886C28.1589 6.50053 28.3229 6.16589 28.6511 5.95496C28.9792 5.74402 29.4571 5.63855 30.0847 5.63855H30.6472V5.19714C30.6472 4.80652 30.4414 4.61251 30.03 4.61511C29.9076 4.61511 29.7943 4.62423 29.6901 4.64246C29.586 4.66069 29.5026 4.68022 29.4401 4.70105C29.3802 4.71928 29.3425 4.731 29.3268 4.73621L29.2058 5.24011H28.487L28.4323 4.05652C28.4792 4.04089 28.5938 4.00704 28.7761 3.95496C28.961 3.90287 29.181 3.85339 29.4362 3.80652C29.694 3.75964 29.9375 3.73621 30.1667 3.73621C30.5782 3.73621 30.905 3.78829 31.1472 3.89246C31.3893 3.99402 31.5664 4.16069 31.6784 4.39246C31.7904 4.62162 31.8464 4.93022 31.8464 5.31824V7.2948L32.4479 7.43933V8.07996L30.8464 8.13464L30.7018 7.61511ZM29.319 6.83777C29.319 6.99402 29.3594 7.11381 29.4401 7.19714C29.5235 7.27787 29.6407 7.31824 29.7917 7.31824C29.9193 7.31824 30.0456 7.28438 30.1706 7.21667C30.2956 7.14636 30.4011 7.07475 30.487 7.00183C30.5729 6.92631 30.6263 6.87683 30.6472 6.85339V6.31824H30.1901C29.8802 6.31824 29.6576 6.3599 29.5222 6.44324C29.3867 6.52657 29.319 6.65808 29.319 6.83777ZM35.7698 7.49402V8.13464H33.2034V7.49402L33.844 7.2948V2.79871L33.2034 2.63855V1.99792L35.0511 1.93542V7.2948L35.7698 7.49402ZM38.9354 7.49402V8.13464H36.369V7.49402L37.0097 7.2948V2.79871L36.369 2.63855V1.99792L38.2167 1.93542V7.2948L38.9354 7.49402ZM39.4136 3.85339L41.5503 3.81433V4.49402L41.1011 4.57605L41.8159 6.81433L42.4956 4.59949L42.0308 4.49402V3.85339L44.1831 3.81433V4.49402L43.687 4.59949L42.5112 7.87683C42.3576 8.30912 42.1935 8.67891 42.019 8.98621C41.8446 9.2935 41.618 9.54871 41.3393 9.75183C41.0633 9.95496 40.7287 10.0565 40.3354 10.0565C40.2235 10.0565 40.0789 10.0461 39.9018 10.0253C39.7274 10.007 39.6128 9.99532 39.5581 9.99011L39.6714 9.13464H40.1909C40.467 9.13464 40.6844 9.03699 40.8433 8.84167C41.0047 8.64636 41.144 8.41329 41.2612 8.14246L39.8393 4.62292L39.4136 4.49402V3.85339Z" fill="black"/>
<line x1="0.628351" y1="0.0546691" x2="0.745242" y2="11.306" stroke="black" stroke-width="0.5"/>
</svg>
